<svg width="32" height="32" viewBox="0 0 32 32" fill="none" xmlns="http://www.w3.org/2000/svg">
<mask id="mask0_4_316" style="mask-type:luminance" maskUnits="userSpaceOnUse" x="0" y="0" width="32" height="32">
<path d="M32 0H0V32H32V0Z" fill="white"/>
</mask>
<g mask="url(#mask0_4_316)">
<path d="M24 31H8H1C1 31 1.69 27.38 2 26C2.16 25.29 2.68 23.87 6.64 22.81C7.78 22.5 9.21 22.22 11 22C11 22 12 25 16 25C20 25 21 22 21 22C22.78 22.22 24.2 22.5 25.34 22.79C29.32 23.85 29.84 25.24 30 26C30.29 27.38 31 31 31 31H24Z" fill="#FFC44D"/>
<path d="M21 9C21 9 20 9 19 7C16 9 11 9 11 9C11 14 13 18 16 18C19 18 21 14 21 9ZM24 8L25.35 22.77L25.34 22.79C24.2 22.5 22.78 22.22 21 22C21 22 20 25 16 25C12 25 11 22 11 22C9.20998 22.22 7.77998 22.5 6.63998 22.81L6.59998 22.65L7.99998 8C8.52998 3.56 12.13 1 16 1C19.87 1 23.47 3.59 24 8Z" fill="#668077"/>
<path d="M19 7C20 9 21 9 21 9C21 14 19 18 16 18C13 18 11 14 11 9C11 9 16 9 19 7Z" fill="#FFE6EA"/>
<path d="M1 31C1 31 1.687 27.379 2 26C2.208 25.083 3 23 11 22C11 22 12 25 16 25C20 25 21 22 21 22C29 23 29.792 25.021 30 26C30.294 27.384 31 31 31 31M7 19.501L8 8C8.531 3.563 12.134 1 16 1C19.866 1 23.469 3.594 24 8L25 19.5M8 30V31M24 30V31M18.999 7C16 9 11 9 11 9C11 14 13 18 16 18C19 18 21 14 21 9" stroke="black" stroke-width="2" stroke-linecap="round" stroke-linejoin="round"/>
</g>
</svg>
