<svg width="34" height="34" viewBox="0 0 34 34" fill="none" xmlns="http://www.w3.org/2000/svg">
<path opacity="0.5" d="M3.75059 18.3171C3.22886 14.6911 2.968 12.8781 3.71113 11.3281C4.45426 9.77795 6.03601 8.83572 9.1995 6.95124L11.1037 5.81695C13.9764 4.10565 15.4128 3.25 17 3.25C18.5872 3.25 20.0236 4.10565 22.8963 5.81695L24.8005 6.95124C27.964 8.83572 29.5458 9.77795 30.2888 11.3281C31.032 12.8781 30.7712 14.6911 30.2494 18.3171L29.8661 20.9809C29.1958 25.6387 28.8607 27.9675 27.2451 29.3588C25.6294 30.75 23.2598 30.75 18.5209 30.75H15.4791C10.7401 30.75 8.37062 30.75 6.75491 29.3588C5.13919 27.9675 4.80409 25.6387 4.1339 20.9809L3.75059 18.3171Z" stroke="white" stroke-width="1.5"/>
<path d="M12.875 22.5C14.0443 23.3667 15.4663 23.875 17 23.875C18.5337 23.875 19.9557 23.3667 21.125 22.5" stroke="white" stroke-width="1.5" stroke-linecap="round"/>
</svg>
