<svg width="29" height="30" viewBox="0 0 29 30" fill="none" xmlns="http://www.w3.org/2000/svg">
<path d="M14.5 18.625C16.502 18.625 18.125 17.002 18.125 15C18.125 12.998 16.502 11.375 14.5 11.375C12.498 11.375 10.875 12.998 10.875 15C10.875 17.002 12.498 18.625 14.5 18.625Z" stroke="white" stroke-width="1.5"/>
<path opacity="0.5" d="M16.6332 3.10062C16.189 2.91667 15.626 2.91667 14.5 2.91667C13.3739 2.91667 12.811 2.91667 12.3668 3.10062C11.7747 3.3459 11.3042 3.81637 11.0589 4.40851C10.947 4.67883 10.9031 4.99319 10.886 5.45174C10.8608 6.12561 10.5152 6.74937 9.93119 7.08654C9.34721 7.4237 8.63423 7.41111 8.03804 7.096C7.63235 6.88157 7.3382 6.76233 7.04811 6.72415C6.41265 6.64049 5.76999 6.81268 5.26149 7.20287C4.88012 7.4955 4.59862 7.98309 4.0356 8.95825C3.47259 9.93342 3.19109 10.421 3.12834 10.8976C3.04469 11.5331 3.21689 12.1757 3.60707 12.6842C3.78515 12.9164 4.03545 13.1114 4.42391 13.3555C4.99498 13.7143 5.36243 14.3256 5.36239 15C5.36235 15.6744 4.99492 16.2855 4.4239 16.6443C4.03539 16.8885 3.78506 17.0837 3.60695 17.3158C3.21677 17.8242 3.04457 18.4668 3.12823 19.1023C3.19097 19.5789 3.47247 20.0665 4.03548 21.0417C4.59851 22.0168 4.88001 22.5045 5.26137 22.797C5.76986 23.1872 6.41253 23.3594 7.04799 23.2758C7.33805 23.2376 7.6322 23.1183 8.03786 22.904C8.63409 22.5888 9.34711 22.5762 9.93115 22.9134C10.5152 23.2506 10.8608 23.8744 10.886 24.5484C10.9031 25.0068 10.947 25.3212 11.0589 25.5915C11.3042 26.1836 11.7747 26.6541 12.3668 26.8994C12.811 27.0833 13.3739 27.0833 14.5 27.0833C15.626 27.0833 16.189 27.0833 16.6332 26.8994C17.2253 26.6541 17.6958 26.1836 17.9409 25.5915C18.053 25.3212 18.0968 25.0068 18.114 24.5483C18.1391 23.8744 18.4847 23.2506 19.0687 22.9134C19.6527 22.5761 20.3657 22.5888 20.962 22.904C21.3677 23.1183 21.6618 23.2375 21.9518 23.2756C22.5872 23.3594 23.2299 23.1872 23.7384 22.797C24.1198 22.5044 24.4013 22.0168 24.9643 21.0415C25.5273 20.0664 25.8089 19.5789 25.8716 19.1023C25.9552 18.4668 25.783 17.8241 25.3929 17.3157C25.2147 17.0835 24.9644 16.8884 24.5759 16.6443C24.005 16.2855 23.6375 15.6743 23.6375 14.9999C23.6375 14.3255 24.005 13.7145 24.5759 13.3557C24.9645 13.1115 25.2149 12.9165 25.393 12.6842C25.7832 12.1758 25.9553 11.5331 25.8717 10.8977C25.809 10.4211 25.5275 9.9335 24.9644 8.95833C24.4014 7.98317 24.1199 7.49559 23.7385 7.20295C23.2301 6.81277 22.5874 6.64057 21.9519 6.72423C21.6619 6.76242 21.3678 6.88164 20.962 7.09605C20.3658 7.41117 19.6528 7.42378 19.0688 7.08658C18.4847 6.74939 18.1391 6.12559 18.114 5.45168C18.0968 4.99316 18.053 4.67882 17.9409 4.40851C17.6958 3.81637 17.2253 3.3459 16.6332 3.10062Z" stroke="white" stroke-width="1.5"/>
</svg>
