<svg width="18" height="18" viewBox="0 0 18 18" fill="none" xmlns="http://www.w3.org/2000/svg">
<rect width="18" height="18" rx="9" fill="#232326"/>
<path d="M9.1279 6.2227C8.65873 6.2227 8.21728 6.40548 7.88557 6.73719C7.20074 7.42202 7.20074 8.53625 7.88557 9.22108C8.21766 9.55279 8.65892 9.73556 9.12828 9.73556C9.59726 9.73556 10.0387 9.55279 10.3702 9.22108C11.0551 8.53625 11.0551 7.42202 10.3702 6.73719C10.0387 6.40548 9.59726 6.2227 9.1279 6.2227ZM9.82956 8.6804C9.64238 8.86777 9.39308 8.97101 9.12828 8.97101C8.8633 8.97101 8.61399 8.86758 8.42644 8.6804C8.03986 8.29363 8.03986 7.66444 8.42644 7.27786C8.61399 7.09031 8.86311 6.98726 9.1279 6.98726C9.39308 6.98726 9.64219 7.09031 9.82956 7.27786C10.2159 7.66463 10.2159 8.29383 9.82956 8.6804Z" fill="#8D8CA6"/>
<path d="M11.8431 7.34863C11.8298 7.29108 11.8208 7.24921 11.8137 7.21709C11.7992 7.14922 11.7902 7.10812 11.7663 7.05248C11.7246 6.95555 11.6116 6.91177 11.5151 6.95249C11.4187 6.99417 11.3736 7.10659 11.4153 7.20371C11.4242 7.22417 11.4277 7.2387 11.4403 7.29739C11.4474 7.33161 11.4571 7.37597 11.4713 7.43677C11.4923 7.5249 11.5709 7.58417 11.6575 7.58417C11.6718 7.58417 11.6867 7.58245 11.7013 7.57882C11.8039 7.55435 11.8674 7.4513 11.8431 7.34863Z" fill="#8D8CA6"/>
<path d="M11.4726 6.468C11.0164 5.74895 10.2716 5.2706 9.42882 5.15551C9.32348 5.14155 9.22788 5.21439 9.21335 5.31916C9.19882 5.42374 9.27224 5.5201 9.37701 5.53444C10.1077 5.63385 10.7537 6.04892 11.1495 6.67295C11.1858 6.73031 11.248 6.76166 11.3114 6.76166C11.3468 6.76166 11.3814 6.7521 11.4137 6.73203C11.5024 6.67544 11.529 6.55729 11.4726 6.468Z" fill="#8D8CA6"/>
<path d="M9.00009 3.8C6.7944 3.8 5 5.33005 5 7.21065C5 8.43781 7.07474 12.3342 7.63208 13.2708C8.11305 14.0793 8.70689 14.2 9.01835 14.2C9.5578 14.2 10.049 13.8696 10.402 13.2696C10.9307 12.3707 13 8.42431 13 7.21081C13.0002 5.33005 11.2056 3.8 9.00009 3.8ZM9.73588 12.9848C9.5226 13.3477 9.25417 13.5645 9.01835 13.5645C8.77917 13.5645 8.51633 13.3526 8.29653 12.9832C7.55608 11.7389 5.7451 8.17494 5.7451 7.21081C5.7451 5.68044 7.20532 4.4355 9.00009 4.4355C10.795 4.4355 12.2551 5.68044 12.2551 7.21081C12.2551 8.18955 10.3836 11.884 9.73588 12.9848Z" fill="#8D8CA6"/>
</svg>
